<mxfile host="app.diagrams.net" modified="2022-04-22T10:09:41.886Z" agent="5.0 (Macintosh; Intel Mac OS X 10_15_7) AppleWebKit/605.1.15 (KHTML, like Gecko) Version/15.3 Safari/605.1.15" etag="dOhVGIFD1nhl004pmyx4" version="17.4.0" type="github">
  <diagram id="C5RBs43oDa-KdzZeNtuy" name="Page-1">
    <mxGraphModel dx="1018" dy="695" grid="1" gridSize="10" guides="1" tooltips="1" connect="1" arrows="1" fold="1" page="1" pageScale="1" pageWidth="827" pageHeight="1169" math="0" shadow="0">
      <root>
        <mxCell id="WIyWlLk6GJQsqaUBKTNV-0" />
        <mxCell id="WIyWlLk6GJQsqaUBKTNV-1" parent="WIyWlLk6GJQsqaUBKTNV-0" />
        <mxCell id="Z6JFAqd1UGmR_Z4NWey1-0" value="SourceSpit" style="rounded=1;whiteSpace=wrap;html=1;" vertex="1" parent="WIyWlLk6GJQsqaUBKTNV-1">
          <mxGeometry x="60" y="230" width="120" height="60" as="geometry" />
        </mxCell>
        <mxCell id="Z6JFAqd1UGmR_Z4NWey1-1" value="SplitEnumerator" style="rounded=1;whiteSpace=wrap;html=1;" vertex="1" parent="WIyWlLk6GJQsqaUBKTNV-1">
          <mxGeometry x="60" y="360" width="120" height="60" as="geometry" />
        </mxCell>
        <mxCell id="Z6JFAqd1UGmR_Z4NWey1-2" value="SpliteEnumeratorContext" style="rounded=1;whiteSpace=wrap;html=1;" vertex="1" parent="WIyWlLk6GJQsqaUBKTNV-1">
          <mxGeometry x="70" y="490" width="120" height="60" as="geometry" />
        </mxCell>
        <mxCell id="Z6JFAqd1UGmR_Z4NWey1-3" value="SourceReader" style="rounded=1;whiteSpace=wrap;html=1;" vertex="1" parent="WIyWlLk6GJQsqaUBKTNV-1">
          <mxGeometry x="60" y="110" width="120" height="60" as="geometry" />
        </mxCell>
        <mxCell id="Z6JFAqd1UGmR_Z4NWey1-16" value="" style="edgeStyle=orthogonalEdgeStyle;rounded=0;orthogonalLoop=1;jettySize=auto;html=1;" edge="1" parent="WIyWlLk6GJQsqaUBKTNV-1" source="Z6JFAqd1UGmR_Z4NWey1-4" target="Z6JFAqd1UGmR_Z4NWey1-15">
          <mxGeometry relative="1" as="geometry" />
        </mxCell>
        <mxCell id="Z6JFAqd1UGmR_Z4NWey1-17" value="createEnumerator" style="edgeLabel;html=1;align=center;verticalAlign=middle;resizable=0;points=[];" vertex="1" connectable="0" parent="Z6JFAqd1UGmR_Z4NWey1-16">
          <mxGeometry x="-0.45" y="-1" relative="1" as="geometry">
            <mxPoint x="18" y="-41" as="offset" />
          </mxGeometry>
        </mxCell>
        <mxCell id="Z6JFAqd1UGmR_Z4NWey1-4" value="SourceCoordinator" style="rounded=1;whiteSpace=wrap;html=1;" vertex="1" parent="WIyWlLk6GJQsqaUBKTNV-1">
          <mxGeometry x="760" y="320" width="120" height="60" as="geometry" />
        </mxCell>
        <mxCell id="Z6JFAqd1UGmR_Z4NWey1-5" value="CoordinatedOperatorFactory" style="rounded=1;whiteSpace=wrap;html=1;" vertex="1" parent="WIyWlLk6GJQsqaUBKTNV-1">
          <mxGeometry x="310" y="10" width="120" height="60" as="geometry" />
        </mxCell>
        <mxCell id="Z6JFAqd1UGmR_Z4NWey1-8" value="" style="edgeStyle=orthogonalEdgeStyle;rounded=0;orthogonalLoop=1;jettySize=auto;html=1;" edge="1" parent="WIyWlLk6GJQsqaUBKTNV-1" source="Z6JFAqd1UGmR_Z4NWey1-6" target="Z6JFAqd1UGmR_Z4NWey1-7">
          <mxGeometry relative="1" as="geometry" />
        </mxCell>
        <mxCell id="Z6JFAqd1UGmR_Z4NWey1-9" value="startScheduling" style="edgeLabel;html=1;align=center;verticalAlign=middle;resizable=0;points=[];" vertex="1" connectable="0" parent="Z6JFAqd1UGmR_Z4NWey1-8">
          <mxGeometry x="-0.325" y="1" relative="1" as="geometry">
            <mxPoint as="offset" />
          </mxGeometry>
        </mxCell>
        <mxCell id="Z6JFAqd1UGmR_Z4NWey1-6" value="JobMaster" style="rounded=1;whiteSpace=wrap;html=1;" vertex="1" parent="WIyWlLk6GJQsqaUBKTNV-1">
          <mxGeometry x="500" y="110" width="120" height="60" as="geometry" />
        </mxCell>
        <mxCell id="Z6JFAqd1UGmR_Z4NWey1-11" value="" style="edgeStyle=orthogonalEdgeStyle;rounded=0;orthogonalLoop=1;jettySize=auto;html=1;" edge="1" parent="WIyWlLk6GJQsqaUBKTNV-1" source="Z6JFAqd1UGmR_Z4NWey1-7" target="Z6JFAqd1UGmR_Z4NWey1-10">
          <mxGeometry relative="1" as="geometry" />
        </mxCell>
        <mxCell id="Z6JFAqd1UGmR_Z4NWey1-12" value="startAllOperatorCoordinators" style="edgeLabel;html=1;align=center;verticalAlign=middle;resizable=0;points=[];" vertex="1" connectable="0" parent="Z6JFAqd1UGmR_Z4NWey1-11">
          <mxGeometry x="-0.24" relative="1" as="geometry">
            <mxPoint as="offset" />
          </mxGeometry>
        </mxCell>
        <mxCell id="Z6JFAqd1UGmR_Z4NWey1-7" value="SchedulerBase" style="whiteSpace=wrap;html=1;rounded=1;" vertex="1" parent="WIyWlLk6GJQsqaUBKTNV-1">
          <mxGeometry x="760" y="110" width="120" height="60" as="geometry" />
        </mxCell>
        <mxCell id="Z6JFAqd1UGmR_Z4NWey1-13" value="" style="edgeStyle=orthogonalEdgeStyle;rounded=0;orthogonalLoop=1;jettySize=auto;html=1;" edge="1" parent="WIyWlLk6GJQsqaUBKTNV-1" source="Z6JFAqd1UGmR_Z4NWey1-10" target="Z6JFAqd1UGmR_Z4NWey1-4">
          <mxGeometry relative="1" as="geometry" />
        </mxCell>
        <mxCell id="Z6JFAqd1UGmR_Z4NWey1-14" value="start" style="edgeLabel;html=1;align=center;verticalAlign=middle;resizable=0;points=[];" vertex="1" connectable="0" parent="Z6JFAqd1UGmR_Z4NWey1-13">
          <mxGeometry x="-0.05" y="-2" relative="1" as="geometry">
            <mxPoint as="offset" />
          </mxGeometry>
        </mxCell>
        <mxCell id="Z6JFAqd1UGmR_Z4NWey1-10" value="DefaultOperatorCoordinatorHandler" style="whiteSpace=wrap;html=1;rounded=1;" vertex="1" parent="WIyWlLk6GJQsqaUBKTNV-1">
          <mxGeometry x="760" y="220" width="120" height="60" as="geometry" />
        </mxCell>
        <mxCell id="Z6JFAqd1UGmR_Z4NWey1-19" value="" style="edgeStyle=orthogonalEdgeStyle;rounded=0;orthogonalLoop=1;jettySize=auto;html=1;" edge="1" parent="WIyWlLk6GJQsqaUBKTNV-1" source="Z6JFAqd1UGmR_Z4NWey1-15" target="Z6JFAqd1UGmR_Z4NWey1-18">
          <mxGeometry relative="1" as="geometry" />
        </mxCell>
        <mxCell id="Z6JFAqd1UGmR_Z4NWey1-20" value="start" style="edgeLabel;html=1;align=center;verticalAlign=middle;resizable=0;points=[];" vertex="1" connectable="0" parent="Z6JFAqd1UGmR_Z4NWey1-19">
          <mxGeometry x="-0.35" y="-1" relative="1" as="geometry">
            <mxPoint as="offset" />
          </mxGeometry>
        </mxCell>
        <mxCell id="Z6JFAqd1UGmR_Z4NWey1-15" value="Source" style="whiteSpace=wrap;html=1;rounded=1;" vertex="1" parent="WIyWlLk6GJQsqaUBKTNV-1">
          <mxGeometry x="960" y="320" width="120" height="60" as="geometry" />
        </mxCell>
        <mxCell id="Z6JFAqd1UGmR_Z4NWey1-22" value="" style="edgeStyle=orthogonalEdgeStyle;rounded=0;orthogonalLoop=1;jettySize=auto;html=1;" edge="1" parent="WIyWlLk6GJQsqaUBKTNV-1" source="Z6JFAqd1UGmR_Z4NWey1-18" target="Z6JFAqd1UGmR_Z4NWey1-21">
          <mxGeometry relative="1" as="geometry" />
        </mxCell>
        <mxCell id="Z6JFAqd1UGmR_Z4NWey1-18" value="SplitEnumerator" style="whiteSpace=wrap;html=1;rounded=1;" vertex="1" parent="WIyWlLk6GJQsqaUBKTNV-1">
          <mxGeometry x="1160" y="320" width="120" height="60" as="geometry" />
        </mxCell>
        <mxCell id="Z6JFAqd1UGmR_Z4NWey1-21" value="KafkaSourceEnumerator" style="whiteSpace=wrap;html=1;rounded=1;" vertex="1" parent="WIyWlLk6GJQsqaUBKTNV-1">
          <mxGeometry x="1160" y="440" width="120" height="60" as="geometry" />
        </mxCell>
        <mxCell id="Z6JFAqd1UGmR_Z4NWey1-25" value="" style="edgeStyle=orthogonalEdgeStyle;rounded=0;orthogonalLoop=1;jettySize=auto;html=1;" edge="1" parent="WIyWlLk6GJQsqaUBKTNV-1" source="Z6JFAqd1UGmR_Z4NWey1-23" target="Z6JFAqd1UGmR_Z4NWey1-24">
          <mxGeometry relative="1" as="geometry" />
        </mxCell>
        <mxCell id="Z6JFAqd1UGmR_Z4NWey1-23" value="SourceOperator.start" style="rounded=1;whiteSpace=wrap;html=1;" vertex="1" parent="WIyWlLk6GJQsqaUBKTNV-1">
          <mxGeometry x="500" y="420" width="120" height="60" as="geometry" />
        </mxCell>
        <mxCell id="Z6JFAqd1UGmR_Z4NWey1-27" value="" style="edgeStyle=orthogonalEdgeStyle;rounded=0;orthogonalLoop=1;jettySize=auto;html=1;" edge="1" parent="WIyWlLk6GJQsqaUBKTNV-1" source="Z6JFAqd1UGmR_Z4NWey1-24" target="Z6JFAqd1UGmR_Z4NWey1-26">
          <mxGeometry relative="1" as="geometry" />
        </mxCell>
        <mxCell id="Z6JFAqd1UGmR_Z4NWey1-28" value="new" style="edgeLabel;html=1;align=center;verticalAlign=middle;resizable=0;points=[];" vertex="1" connectable="0" parent="Z6JFAqd1UGmR_Z4NWey1-27">
          <mxGeometry x="0.025" y="2" relative="1" as="geometry">
            <mxPoint as="offset" />
          </mxGeometry>
        </mxCell>
        <mxCell id="Z6JFAqd1UGmR_Z4NWey1-33" value="" style="edgeStyle=orthogonalEdgeStyle;rounded=0;orthogonalLoop=1;jettySize=auto;html=1;" edge="1" parent="WIyWlLk6GJQsqaUBKTNV-1" source="Z6JFAqd1UGmR_Z4NWey1-24" target="Z6JFAqd1UGmR_Z4NWey1-32">
          <mxGeometry relative="1" as="geometry" />
        </mxCell>
        <mxCell id="Z6JFAqd1UGmR_Z4NWey1-34" value="new" style="edgeLabel;html=1;align=center;verticalAlign=middle;resizable=0;points=[];" vertex="1" connectable="0" parent="Z6JFAqd1UGmR_Z4NWey1-33">
          <mxGeometry x="-0.05" y="2" relative="1" as="geometry">
            <mxPoint as="offset" />
          </mxGeometry>
        </mxCell>
        <mxCell id="Z6JFAqd1UGmR_Z4NWey1-39" value="" style="edgeStyle=orthogonalEdgeStyle;rounded=0;orthogonalLoop=1;jettySize=auto;html=1;" edge="1" parent="WIyWlLk6GJQsqaUBKTNV-1" source="Z6JFAqd1UGmR_Z4NWey1-24" target="Z6JFAqd1UGmR_Z4NWey1-38">
          <mxGeometry relative="1" as="geometry" />
        </mxCell>
        <mxCell id="Z6JFAqd1UGmR_Z4NWey1-24" value="initReader" style="rounded=1;whiteSpace=wrap;html=1;" vertex="1" parent="WIyWlLk6GJQsqaUBKTNV-1">
          <mxGeometry x="700" y="420" width="120" height="60" as="geometry" />
        </mxCell>
        <mxCell id="Z6JFAqd1UGmR_Z4NWey1-30" value="" style="edgeStyle=orthogonalEdgeStyle;rounded=0;orthogonalLoop=1;jettySize=auto;html=1;" edge="1" parent="WIyWlLk6GJQsqaUBKTNV-1" source="Z6JFAqd1UGmR_Z4NWey1-26" target="Z6JFAqd1UGmR_Z4NWey1-29">
          <mxGeometry relative="1" as="geometry" />
        </mxCell>
        <mxCell id="Z6JFAqd1UGmR_Z4NWey1-31" value="ref" style="edgeLabel;html=1;align=center;verticalAlign=middle;resizable=0;points=[];" vertex="1" connectable="0" parent="Z6JFAqd1UGmR_Z4NWey1-30">
          <mxGeometry x="-0.025" relative="1" as="geometry">
            <mxPoint as="offset" />
          </mxGeometry>
        </mxCell>
        <mxCell id="Z6JFAqd1UGmR_Z4NWey1-26" value="SourceReaderContext" style="whiteSpace=wrap;html=1;rounded=1;" vertex="1" parent="WIyWlLk6GJQsqaUBKTNV-1">
          <mxGeometry x="900" y="420" width="120" height="60" as="geometry" />
        </mxCell>
        <mxCell id="Z6JFAqd1UGmR_Z4NWey1-29" value="OperatorEventGateway" style="whiteSpace=wrap;html=1;rounded=1;" vertex="1" parent="WIyWlLk6GJQsqaUBKTNV-1">
          <mxGeometry x="900" y="530" width="120" height="60" as="geometry" />
        </mxCell>
        <mxCell id="Z6JFAqd1UGmR_Z4NWey1-36" value="" style="edgeStyle=orthogonalEdgeStyle;rounded=0;orthogonalLoop=1;jettySize=auto;html=1;" edge="1" parent="WIyWlLk6GJQsqaUBKTNV-1" source="Z6JFAqd1UGmR_Z4NWey1-32" target="Z6JFAqd1UGmR_Z4NWey1-35">
          <mxGeometry relative="1" as="geometry" />
        </mxCell>
        <mxCell id="Z6JFAqd1UGmR_Z4NWey1-32" value="TiimestampsAndWatermarks" style="whiteSpace=wrap;html=1;rounded=1;" vertex="1" parent="WIyWlLk6GJQsqaUBKTNV-1">
          <mxGeometry x="760" y="582" width="120" height="60" as="geometry" />
        </mxCell>
        <mxCell id="Z6JFAqd1UGmR_Z4NWey1-35" value="" style="whiteSpace=wrap;html=1;rounded=1;" vertex="1" parent="WIyWlLk6GJQsqaUBKTNV-1">
          <mxGeometry x="760" y="682" width="120" height="60" as="geometry" />
        </mxCell>
        <mxCell id="Z6JFAqd1UGmR_Z4NWey1-38" value="Source::createReader" style="whiteSpace=wrap;html=1;rounded=1;" vertex="1" parent="WIyWlLk6GJQsqaUBKTNV-1">
          <mxGeometry x="580" y="585" width="120" height="60" as="geometry" />
        </mxCell>
      </root>
    </mxGraphModel>
  </diagram>
</mxfile>
